<?xml version="1.0" encoding="UTF-8"?>
<svg xmlns="http://www.w3.org/2000/svg" id="Layer_2" viewBox="0 0 508.4 297.3" style="background-color:transparent;">
  <defs>
    <style>.cls-1 { fill: #c3a572; }.cls-2 { fill: #fff; }</style>
  </defs>
  <g id="Layer_1-2" data-name="Layer_1">
    <g>
      <g>
        <path class="cls-2" d="M.1,234.7c3.9-.4,6.6-1.2,8.3-2.9,2.1-2.1,2.1-5.8,2.1-11.7v-26.9c0-9.6-.2-13.4-9.6-14.5v-1.5h26.7v1.5c-9.1.4-9.3,4.2-9.3,14.5v27c0,6.2.2,10,2.6,11.9,2.1,1.7,5.1,2.4,9.2,2.6v1.4c-5.1,0-10.2-.2-15.2-.2s-10,0-14.9.2v-1.4h.1ZM29.9,195.8c6.3-6.8,10.2-10.8,10.2-13.8s-1.6-3.3-5.2-3.3v-1.5h22.5v1.5h-.5c-7.5,0-13.4,6-22.2,15.4l-8.4,8.8,16.6,18.7c6.8,7.7,13.6,12.4,20,14.1l-.3,1.2c-6.3-.4-11.2-1-14.7-2-4.1-1.2-6.5-4-9.3-7l-19.1-20.8,10.3-11.2.1-.1Z"/>
        <path class="cls-2" d="M64.6,234.7c7-.4,7-2.4,7-9.6v-14.1c0-3.5-.3-5.2-3.7-7.9l-1.8-1.4v-.7l11.3-4.2.9.3c0,3.6-.2,6.1-.2,7.8v21.8c0,6,.3,7.5,6.8,8.1v1.4h-20.5v-1.4l.2-.1ZM74.5,174.7c2.5,0,4.3,1.9,4.3,4.3s-1.9,4.3-4.3,4.3-4.3-1.7-4.3-4.3,1.9-4.3,4.3-4.3Z"/>
        <path class="cls-2" d="M89.3,201.4l10.9-5.2.8.4-.8,6.6c6.2-4.4,11.2-6.7,15.9-6.7,7.4,0,10.3,4.5,10.3,13.8v16.3c0,6,0,7.1,6.3,7.9v1.4h-19.6v-1.4c6.3-.6,6.8-2,6.8-8.7v-11.7c0-8.9-2.1-13.2-9.5-13.2s-6.5,1.2-10.1,3.8v22.2c0,5.9.3,6.8,7,7.6v1.4h-20.1v-1.4c5.7-.6,6.5-2.1,6.5-7.6v-17.3c0-2.9-.4-5.1-3-6.8l-1.4-.9v-.5h0Z"/>
        <g>
          <path class="cls-2" d="M134.9,210.3c0-8.3,6.6-14.3,16.4-14.3s7.4,1.3,11.2,3.1l12.6.3-.2,4.1-10.6-.6c1.3,1.9,1.8,3.9,1.8,6.6,0,8.5-6.8,14.8-16.2,14.8s-3.8-.3-5.8-1c-2,2-3.1,3.6-3.1,4.8,0,2.5,2.4,4.1,6.8,4.1h1l5.3-.3h3.6c10.4,0,15.4,2.6,15.4,10.1s-2.8,9.1-8.3,12.9c-5.5,3.7-11.8,5.8-18.6,5.8s-14.6-4.2-14.6-9.6,3.8-8.3,11.4-12.3c-5.7-1.9-8.6-4.2-8.6-7.1s1.9-3.6,4.4-5.7l3.8-3.2c-5.3-3.1-7.8-6.9-7.8-12.3l.1-.2ZM138.1,247.9c0,4.2,5.3,8.3,13.7,8.3s16.3-4.7,16.3-10.5-3.4-7.4-10.3-7.4h-3.2l-7.1.3c-4.1.2-9.4,5.4-9.4,9.3h0ZM151.1,222.2c4.7,0,7.7-4.1,7.7-11.3s-4.1-12.9-9-12.9-7.8,3.9-7.8,11.2,4,13,9,13h.1Z"/>
          <path class="cls-2" d="M177.2,198.4c7.4-.7,11.1-3.7,11.1-8.9s-2.8-6.8-7.7-6.8-1.1,0-1.7,0c-.7-.6-1-1.4-1-2.3,0-2.9,2-4.8,5.2-4.8,5.2,0,9.5,4.6,9.5,10.7s-5.3,12.9-15.1,13.5l-.2-1.5-.1.1Z"/>
        </g>
        <g>
          <path class="cls-2" d="M186.4,223.9l1.9-.2c1.4,7.1,5.3,11.1,10,11.1s7-3,7-7.4-1.6-5-4.8-6.8l-4.1-2.3c-5.7-3.1-8.5-6.3-8.5-10.8s5.1-10.9,12.6-10.9,6.3.9,9.6,2.8l.5,8.2h-1.9c-2.2-6.2-4.7-9-8.7-9s-5.9,2.7-5.9,6.3,2.1,5.1,6.1,7.5l4.9,3c4.6,2.8,7,5.1,7,9.4,0,6.6-5.7,11.8-14.2,11.8s-7.6-1.1-10.7-3.1l-.6-9.6h-.2Z"/>
          <path class="cls-2" d="M298.9,218.2c-1.3,5.7-2.9,10.9-5,15.6-5.5,2.5-11.7,3.8-18,3.8s-16.9-2.6-22.8-7.2c-7.4-5.8-11-13.4-11-23.5s3.9-17.4,11-23.3c6-5,14.2-7.7,23.6-7.7s13.4,1.5,19.4,4.3v14.5h-1.4c-1.8-10.9-8-16.6-18.3-16.6s-24.2,11.3-24.2,28.2,2.9,15.6,8.2,21.2c4.6,4.8,10.9,7.5,17.7,7.5s14.6-5.5,19.6-17.3l1.3.5h-.1Z"/>
          <path class="cls-2" d="M322.8,196.6c12.9,0,21.2,7.9,21.2,20s-9,20-21.2,20-21.2-8-21.2-20,9-20,21.2-20ZM309.6,216.6c0,11.1,5.8,18.1,13.2,18.1s13.2-6.5,13.2-18.1-5.8-18.2-13.2-18.2-13.2,6.6-13.2,18.2Z"/>
          <path class="cls-2" d="M347.1,234.7c6.7-.6,7.1-2.6,7.1-10.1v-37.6c0-3-.3-5.2-2.8-7.5l-1.4-1.3v-.7l10-3.7.9.4c0,5.2-.2,8.9-.2,11.2v41.1c0,5.9.3,7.8,7.1,8.1v1.4h-20.8v-1.4l.1.1Z"/>
          <path class="cls-2" d="M368.9,234.7c6.7-.6,7.1-2.6,7.1-10.1v-37.6c0-3-.3-5.2-2.8-7.5l-1.4-1.3v-.7l10-3.7.9.4c0,5.2-.2,8.9-.2,11.2v41.1c0,5.9.3,7.8,7.1,8.1v1.4h-20.8v-1.4l.1.1Z"/>
          <path class="cls-2" d="M425.8,227c-4.3,6.3-9.9,9.6-16.3,9.6-9.8,0-17.8-8-17.8-19.3s8.4-20.7,18.8-20.7,14,5.1,14.4,13.3c-9.4-.3-17.8-.5-25.5-.5-.3,1.5-.5,3-.5,4.7,0,10.1,6.6,17.2,15,17.2s7.9-1.9,10.7-5.3l1.2,1h0ZM408.8,198.6c-4.1,0-7.8,3.4-9,9.1l16.6-.4c-1.1-5.7-3.8-8.7-7.5-8.7h-.1Z"/>
          <path class="cls-2" d="M431.8,210.3c0-8.3,6.6-14.3,16.4-14.3s7.4,1.3,11.2,3.1l12.6.3-.2,4.1-10.6-.6c1.3,1.9,1.8,3.9,1.8,6.6,0,8.5-6.8,14.8-16.2,14.8s-3.8-.3-5.8-1c-2,2-3.1,3.6-3.1,4.8,0,2.5,2.4,4.1,6.8,4.1h1l5.3-.3h3.6c10.4,0,15.4,2.6,15.4,10.1s-2.8,9.1-8.3,12.9c-5.5,3.7-11.8,5.8-18.6,5.8s-14.6-4.2-14.6-9.6,3.8-8.3,11.4-12.3c-5.8-1.9-8.6-4.2-8.6-7.1s1.9-3.6,4.4-5.7l3.8-3.2c-5.3-3.1-7.8-6.9-7.8-12.3l.1-.2ZM435,247.9c0,4.2,5.3,8.3,13.7,8.3s16.3-4.7,16.3-10.5-3.4-7.4-10.3-7.4h-3.2l-7.1.3c-4.1.2-9.4,5.4-9.4,9.3h0ZM448,222.2c4.7,0,7.7-4.1,7.7-11.3s-4.1-12.9-9-12.9-7.8,3.9-7.8,11.2,4,13,9,13h.1Z"/>
          <path class="cls-2" d="M508.4,227c-4.3,6.3-9.9,9.6-16.3,9.6-9.8,0-17.8-8-17.8-19.3s8.4-20.7,18.8-20.7,14,5.1,14.4,13.3c-9.4-.3-17.8-.5-25.5-.5-.3,1.5-.5,3-.5,4.7,0,10.1,6.6,17.2,15,17.2s7.9-1.9,10.7-5.3l1.2,1h0ZM491.4,198.6c-4.1,0-7.8,3.4-9,9.1l16.6-.4c-1.1-5.7-3.8-8.7-7.5-8.7h-.1Z"/>
        </g>
        <g>
          <path class="cls-2" d="M161.1,294.4c.8.8,2.1,1.2,4,1.5v.6h-13.4v-.6c1.8-.3,3.2-.7,4-1.5.9-.8,1-2.6,1-5.5v-16.5h-2.5c-4.3,0-6.2,1-7.2,4.7h-.6c0-.1.7-7.1.7-7.1h.4l1.1,1.2h19.8l1.2-1.2h.3l.6,7.1h-.6c-.9-3.4-2.9-4.7-6.9-4.7h-2.7v16.5c0,2.9.1,4.6,1,5.5h-.2Z"/>
          <path class="cls-2" d="M171.4,295.9c1.5-.3,2.4-.6,3.2-1.4.9-1,2.2-4.7,4.6-11.1l4.1-10.9v-.7c.9-.3,1.6-1,2.4-2l8,21.6c1.1,3,2,4.4,4.8,4.5v.6h-10.8v-.6c1.9-.1,2.9-1,2.9-2.1s-.2-1.4-.5-2.5l-1.9-5.4h-8.6l-.7,2.1c-.9,2.7-1.4,4.5-1.4,5.5,0,1.6,1.3,2.2,4.1,2.3v.6h-10.2v-.6.1ZM187.4,284.4l-3.8-10-3.6,10h7.4Z"/>
        </g>
        <g>
          <path class="cls-2" d="M204,278v-.5c0-2.3,0-3.7-.9-4.5-.9-.7-2-1.1-3.6-1.1v-.7h12.9v.7c-4.1.1-5,1.4-5,5.5v9c0,2.9.3,4.9,1.7,6.5,1.4,1.5,3.7,2.4,6.5,2.4s5.6-1.2,7-4c.8-1.7.9-4.8.9-9.3s0-7-1-8.3c-.9-1.3-2.4-1.8-4.6-1.8v-.7h10.8v.7h0c-3.6,0-3.7,3.1-3.8,9.9,0,4.2.1,7.5-1,10.1-1.4,3.4-4.9,5.2-9.9,5.2s-6.9-1.1-8.5-3.2c-1.4-2-1.5-4.2-1.5-7.1v-8.8h0Z"/>
          <path class="cls-2" d="M233.7,295.9c4.2-.2,4.8-2.5,4.8-8.8v-9.4c0-1.8-.2-3.1-1.5-4.4-.9-.9-2.2-1.4-3.8-1.5v-.7h6.3l18.1,19.4v-8.4c0-4.5,0-7.4-1.2-8.8-.8-.9-2.1-1.4-4.1-1.6v-.7h10.2v.7h-.3c-2.8,0-3.5,2.8-3.5,9.2v7.8c0,2.9,0,5.8.2,8.6h-.2c-2.2-2.5-3.5-4-3.8-4.3l-15.3-16.3v7.2c0,5.1,0,8.3.9,9.8.7,1.1,2.1,1.7,4.4,2.1v.6h-11.3v-.6l.1.1Z"/>
          <path class="cls-2" d="M282.7,294.4c.8.8,2.1,1.2,4,1.5v.6h-13.4v-.6c1.8-.3,3.2-.7,4-1.5.9-.8,1-2.6,1-5.5v-16.5h-2.5c-4.3,0-6.2,1-7.2,4.7h-.6c0-.1.7-7.1.7-7.1h.4l1.1,1.2h19.8l1.2-1.2h.3l.6,7.1h-.6c-.9-3.4-2.9-4.7-6.9-4.7h-2.7v16.5c0,2.9.1,4.6,1,5.5h-.2Z"/>
          <path class="cls-2" d="M311.4,270.8c8.2,0,13.5,5.3,13.5,13.3s-5.4,12.9-13.7,12.9-13.5-5.2-13.5-13.2,5.4-12.9,13.7-12.9v-.1ZM311.6,295.9c5.4,0,9.1-4.4,9.1-11.5s-.8-6.1-2.2-8.2c-1.9-2.9-4.3-4.3-7.4-4.3-5.3,0-9,4.4-9,11.4s4.1,12.7,9.6,12.7l-.1-.1Z"/>
        </g>
        <path class="cls-2" d="M330.8,295.9c4.2-.2,4.8-2.5,4.8-8.8v-9.4c0-1.8-.2-3.1-1.5-4.4-.9-.9-2.2-1.4-3.8-1.5v-.7h6.3l18.1,19.4v-8.4c0-4.5,0-7.4-1.2-8.8-.8-.9-2.1-1.4-4.1-1.6v-.7h10.2v.7h-.3c-2.8,0-3.5,2.8-3.5,9.2v7.8c0,2.9,0,5.8.2,8.6h-.2c-2.2-2.5-3.5-4-3.8-4.3l-15.3-16.3v7.2c0,5.1,0,8.3.9,9.8.7,1.1,2.1,1.7,4.4,2.1v.6h-11.3v-.6l.1.1Z"/>
      </g>
      <circle class="cls-2" cx="253.6" cy="70.2" r="70.2"/>
      <path class="cls-1" d="M230.2,66.9c-.1-1.9-.6-7.8-2.1-8.2s-1.4,3.1-1.4,3.1c0,0,2.1,4.8,2.6,5.4,0,0,1,1.6.9-.3ZM225.6,68.7c0,2.1,2.3,3.1,2.3,3.1.3-5.3-1.4-8.5-1.4-8.5-.5,1.4-.9,3.3-.9,5.4ZM226.6,73.6c.5-.7-1.1-2.4-1.1-2.4,0,0-2.1-2-.8-4.9,1.2-2.9,1.3-5.8,1.3-5.8-4.7,5.5-5.6,7.6-5.6,7.6.4-.3,1.6-1.2,1.2-.3s.1,1.7.1,1.7c.6-.8.9.2.9.2.7,1.9,3.5,4.6,4,3.9ZM231.2,69.6c-1.4,0-.6,6-.5,7.3,0,1.2.7,1.6.9,1.8.2.2.4.3.6.2.1,0,0-.4,0-.4-.5-1.2-.2-5.5-.2-5.5.3-3.4-.7-3.2-.7-3.2l-.1-.2ZM233.6,74.1c-1.8.1.2,7.7.2,7.7.5,1.5,1.5,1.6,1.6,1.4.1-.2,0-.5,0-.5-.5-1.1-.4-5.3-.4-5.3,0-3.4-1.3-3.3-1.3-3.3h-.1ZM236.5,77.8c-1.8.2.2,6.9.4,7.7.4,1.3,1.5,1.5,1.7,1.3s-.1-.5-.1-.5c-.6-.9-.5-5.4-.5-5.4-.1-3.2-1.4-3.1-1.4-3.1h-.1ZM239.2,81.3c-.9.3-.1,2.4.2,3.4.3,1,.4,1.6.4,1.9s0,1.1.6,1.1c.5,0,.6-2,.6-2-.5-.8-.5-1.7-.5-1.7-.1-2.9-1.4-2.7-1.4-2.7h.1ZM290.6,37.9c-3.3,2-12,8-21.8,11.5,0,0-2.2.2-.2-.7,2.1-.9,30.6-15,25.2-21.2,0,0-.7-.8-4.3,2.7-3.5,3.5-15.5,13.5-30.4,19,0,0-1.3-.9-.5-1.3.8-.4,4.4-3,3.8-4s-2.7,0-2.7,0c0,0-1.2.4,0-.3,1.1-.7,3.4-2.3,2.5-3.2s-3.1-.2-3.1-.2c0,0-1.5.5-.2-.5,0,0,.6-.5,1.7-.8,1.5-.4,2.3-3.1-.7-3.1,0,0-.5-.3.6-2.5.8-1.5,0-1.8,0-1.8,0,0-.4-.4-1.7,1.2-1.3,1.6-1.9,1.6-3.3,2.7-1.5,1.1-6.6,4.9-5.9,8.2s3.7,3.2,3.7,3.2c0,0,.3,0,.1.2-.2.2-4.8,4.1-2.4,5.5,0,0,.7.3.3,1.4-.4,1.2-.9,3.6-.6,4.8,0,0-1.1-.8-2.3-1.3-1.2-.5-2-1.5-1.8-2.2,0,0,1.1.1,1.8-.2.6-.3-.9-3-1.2-3.3-.4-.3-.7-.7,0-.7s3,0-.2-4c-.6-.8-.2-.8.2-.9.4,0,1.5,0,1.1-1.3-.4-1.2-.7-2.1-3.2-3.2-2.5-1,0-1.3.3-1.4.2,0,2.4-.4,0-1.5-2.3-1.2-3-1.2-3.4-1.4-.3-.2-.8-.3.3-.6,1.1-.3.9-.9-.1-1.2-1-.4-2.1-.7-3.5-.7,0,0-.9,0-.4-1,0,0,1.2.4.9-.4-.3-.8-2.7-1.4-5.1-.9,0,0-.7,0-1,.5-.3.4-.8.2-.5-.4.3-.5.3-1.3-.3-1.5-.6-.2-2,.1-3.3,1.3s-.9.3-.8,0c0-.2.5-1.5-.6-.9s-2.2,1.1-3,2.4c-.5.8-.4,0-.4,0,0,0,0-.8-.7-.5-.7.4-1.2.6-1.9,2.7-.7,2.1-.7.6-.7.6,0,0-.2-.8-.9-.9,0,0-.2-.1-.2.2s-.1.6-.5,1-.8,1.4-.7,3.7c0,0,.1,1.5-.4,1.5,0,0-.2.1-.2-.8s-.5-1.8-.9-1.7c-.4.2-1.5,1.8-.5,5.8,0,0,.1.5-.3.4-.5,0-1.5-.3-2.8-.1-.7,0-1,.4-1,.6,0,.3-.1.5.2.6.4,0,2.8,1,3.8,5.5,0,0,.6,3.4,1.1,4.3,0,0-.2,6.9,2.1,7.1,0,0,1,0,.8,1.2,0,0,6.4-7.5,7.1-8.4s2.7-5.7-2.9-9.6c-1.9-1.3,4.3-9.3,11.6-4.3,0,0,5.2,3.5-.1,11.2-3,4.3-9.6,10.3-.2,21.4l6,6.8s.8.9,1.1-.8c0,0,0-.5.4-.1s.8.9,1.9,2.7c0,0,.6.9,1.6,1.1,0,0,.4,0,.6.4,0,0,2.5,2.9,2.8,4.9,0,0,.2,2.1,1.3,1.7,0,0,1.1-.7,1.3,2.1,0,1.2.2,2,1,2.3,0,0,1.3.5,1.5,6.5,0,1.8,1.4.7,1.7-.5.4-1.2,1,1,.8,4.4s0,4.6-1.1,4.2c-1-.3-2-.8-3.3-2-1.4-1.1-2.2-.9-2.8-.9s-1.9.2-2.3.6c-.4.4-.6.5-.8.5s-.7.2-.7.4c0,0,1-.2,1.9.4,0,0,.6.4.9.5.3,0,.1.2,0,.2,0,0-.5.2-1,.1-.6,0-2.2.1-3.1.7-1,.6-1,1.5-1,1.5,0,0-.8.4-.8.6,0,0,.3,0,1.1-.2,0,0,.4-.1.5.2s1.1.3,1.1.3c0,0,1.4,0,1.9-.1.5,0,.5.2,0,.4-.4.3-2.6,1.8-1.8,3.3,0,0-.8.8-.7,1.2,0,0,.3,0,.7-.4.4-.3.5,0,.5,0,0,0,1.1.8,1.9-1.2,0,0,.1-.7,1-.3.9.4,3.8-.3,5-.9,1.1-.6,4-2.3,9.1-.6,0,0,1.1.3,1.9,1.1.8.8,1.2.8,1.5.5.2-.2,1.2-.3,2.1.8,0,0-.1-1.7-1.5-2.4,0,0-.3,0-.8-.9s-1.8-3-6.6-3.1c0,0,.4-4.3-.5-10.6,0,0,1.1.1,1.9.4.8.3,1.6,0,.9-1.5s-5.1-8.1-6.7-9.9c0,0,.8-2-2.2-3.7s-5.7-6.2-6.2-6.8c-.4-.7-2.3-2.2-4.4-3.5,0,0-3.7-1.8-3-9.7.2-2.8,3.5-3,6.9-3.1,0,0,1.5.2,1.8-1.8.2-2,4.2-2.4,5.3.4,1.1,2.7,1.6,3.2,2.5,3.7,0,0,.9-.4,4.6,1.6,0,0,.2-.5.9-.1.7.3,6.6,4,7.4,2.1.5-1.3-.1-1.6-1.2-2.1-1.1-.4-5.2-2.1-4.9-2.7.3-.6,1.6,0,2.5.3s6.3,1.7,9.4-.8c0,0,2.4-2.1-.2-1.9-2.6.3-7.5,1-11.4-.3,0,0-.8-.5.1-.4,1,0,13.7,1.2,17.6-4.3.7-1,0-1.5-1.1-1.1-1,.5-3.7,1.8-13.6,2.2,0,0-2.1-.4.2-.6,2.3-.2,11-.3,18.4-5.4,0,0,1.6-1.2,1.2-1.7s-1.8-.2-2.9.3-7.6,3.1-17.7,4.3c-1.3,0-.9-.3.3-.6,1.1-.2,15.5-2.5,22.4-8.6,0,0,.6-.4.2-1-.4-.5-2.7.7-2.7.7,0,0-6.5,3.3-14,5.3,0,0-2.3,0-.2-.7,2.1-.7,16.5-5.8,20.3-12.1,0,0,1.1-2.5-2.2-.4l.1.6ZM222.2,60.4c-.3,0-.6-.7-.6-1.6s.3-1.6.6-1.6.6.7.6,1.6-.3,1.6-.6,1.6ZM263.1,36.9c2.1-1.2,11.7-7.1,14-9.9,1-1.2,1.2-2.5.7-3.1-.6-.8-5.8,2.3-11.5,5.4-5.7,3.1-4.7,5.2-4.7,5.2,2.7.6,1.4,2.4,1.4,2.4h.1ZM276.6,33.6c0-.4.3-.7.3-.7,0,0,.4-.6.8-1.1.3-.5-.3-.6-.3-.6-2.9-.5-14.7,7.8-14.7,7.8,2.6.3.9,2.8.9,2.8,1.5-1.5,7.6-4.2,10.2-5.4s2.8-2.4,2.9-2.8h-.1ZM263.6,45.6c.9-.4,6.3-3.1,7.7-3.9,1.4-.8,1.8-2.1,1.9-2.7.1-.6-.9-.2-.9-.2-5.4,1.7-8.9,4.4-8.9,4.4,1.7,1.2.2,2.4.2,2.4h0ZM249.8,68.3c.7.2,1.1.2,1.4-.4.4-1,1-1.2,2.5-.5,1.4.7,2.7-1.5,2.7-1.5-1.1-1.1-2-2.4-2.3-3.4s-1.2-1.8-2.4-1.7c-1.2.1-1.1,1.5-1.1,1.5-.2,1.9-3.4,1.9-3.4,1.9-4.4.1-4.9.8-5.1,2.2s0,2.6,0,3.9c.1,1.3,1.1.5,1.1.5.3-4.5,4.2-1.6,4.2-1.6.5-1.1,1.7-1.2,2.4-1v.1ZM244,71.1c0,1,0,4.7,1.1,4.7s1.8-4.9,1.8-4.9c0,0-.4-1.5-1.4-1.5s-1.4.8-1.4,1.8l-.1-.1ZM249,78.5c1.6,0,1.9-5.1,1.9-5.6,0-.6,0-3.7-1.8-3.8,0,0-1.2-.2-1.4,1.9-.2,2-1.1,7.4,1.2,7.6l.1-.1ZM254.1,78.4c2.3-.1,2.1-4.3,1.1-6.4-.3-.8-1.1-2.7-1.1-2.7,0,0-.7-1.7-1.8-1.2-1,.4-.7,1.6-.5,2,.1.4.4,1.7.2,3.3-.2,1.6-.1,5.1,2.2,5h-.1ZM255.1,69.4c.7,1.4,1.6,3.1,1.8,5.4,0,1.4.2,2.2,1.3,2.4,1.1.2,2.3-1.1,2.3-2.3s0-2.9-4.5-6.9c0,0-1.7,0-1,1.3l.1.1ZM261.3,72.9c.6,1.3,2.3,1.5,3.1.7.8-.7,1.4-4.5-5.5-6.8,0,0-1.6-.5-1.9.5,0,0-.1.3.5.9.6.5,3.1,2.8,3.9,4.7h-.1ZM253.7,82.2c.3-.8.3-1.7.2-2.1,0-.4-.4-.5-.4-.5-.7-.2-1.8-1.1-1.8-1.1-.3-.3-.5,0-.7.6-.3.6-1.3.6-1.3.6.4,3.4,3.7,3.4,4,2.6v-.1ZM257.7,82.2c.8-1.4.9-2.4,1-2.8,0-.4-.9-1.2-1.5-1.7s-.9.1-.9.1c-.5,1.1-1.4,1.5-1.4,1.5-.8.4,0,1.9,0,1.9,0,0,2,2.3,2.8,1ZM261.9,80.9c.7-1.1,1.5-1,2.2-.6.7.5.9.4,1.1,0s.2-.9.2-1-.1-.5-.1-.5c-.5-.6-1.7-2.7-1.8-2.9-.1-.2-.2-.6-.7-.4-.4.3-1.2-.2-1.2-.2-.4,2.4-1.9,2.5-1.9,2.5-.3.1,0,.6,0,.6.3.5,0,1.3-.2,1.7-.1.5.2.6.2.6,0,0,1,.3,1.2,1s.4.4,1-.8h0ZM260.8,86.4c-.2-3.5-.8-4.3-1.2-4.6-.3-.3-.6-.3-.8.2-.2.5-.9,1.2-.9,1.2-.3.3-.1.5,0,.6s.4.4.9,1.2.6,1,1.3,1.9c.6.8.7-.5.7-.5h0ZM254.9,85.7c.3,0,.9.5.9.5.6.6.5-1.3.5-2.1s-1.5-1.8-1.9-1-2.3.3-2.3.3l1.5,1.5c.5.5,1,.8,1.3.8ZM257.5,88.9c0,.3,0,.8.4,1.4.3.7,1.7,1.8,2,1.5,1.2-.9-1.9-6.2-1.9-6.2-.5-.8-.8.3-.8.5s0,.2-.1.8,0,.9,0,1.1c.1.2.3.6.3.9h.1ZM261.7,92.5c.2,3,2.9,2.9,3.2,2.9.4,0,.5-.2.3-1.4-1.2-5.2-3.3-8.3-3.3-8.3-.5-.5-.3.2-.3.2.2.8.1,2.2.1,2.2-.1,1.8-.1,2.5,0,4.4h0ZM262.9,81.2c-2.7.6,1.4,6.6,1.4,6.6.4.4.6.2.6.2,1.1-.6-.1-4.9-.5-6-.3-1.1-1.6-.8-1.6-.8h.1ZM269.3,86.6c.9.9,1.3.1,1.3.1,1.4-2.9-3.3-6.5-3.9-6.8-.6-.4-.7.3-.7.8s-.2,1-.2,1c0,0-.2.4,0,.7.6.9,2.7,3.4,3.5,4.2h0ZM268.1,92.2c-.6-1.6-1.4-3.2-1.6-3.6-.3-.4-.3.1-.3.1-.3,1.1-1.4.4-1.4.4.2.7.9,1.9,1.7,5.5.9,3.5,3.8,3,4.3,2.7.6-.3-.4-1.4-.5-1.6-.1-.2-1.6-1.8-2.2-3.4v-.1ZM266.5,85.2s.3,1.2.4,2c.2.8.4,1.4,2.7,5.6,2.3,4.1,5.1,5.8,6.3,5.2,1.1-.5,0-2,0-2-7.4-9.5-9.5-10.7-9.5-10.7l.1-.1ZM271.7,86.7c0,1-1,1.2-1,1.2,0,0,5.3,6.7,7.6,9.2,2.3,2.5,7.9,1.4,5.3-.7-2.6-2.2-12-9.7-12-9.7h.1ZM289.1,93.9c-1.1-.9-17.8-10.4-17.8-10.4.3.8.3,2,.3,2,0,0,7.2,5.8,11.8,9.2,4.6,3.3,5.9,3.2,6.8,2.1.9-1.1,0-2-1.1-2.9h0ZM240.2,110.8c-.1-.3-.2-1.1.9-3.2,1.1-2,1.4-4,1.4-4,.2.2.4-.3.4-.3,0,0,.2.3,1.1,1.2.9.8,1.4-1.1,1.3-3.5,0-2.4.2-2.6.2-2.6.5.5,1.1,0,1.3-1.5.2-1.6.8-4.2,1.4-6.2.6-1.9,0-3.8-1.4-4-1.3-.2-2.4-2.2-2.5-2.6-.2-.3-.4-.9-.8-.4s-1.3.4-1.3.4c0,0-.3.2-.5,4.9-.3,7.4-1.1,8.1-1.1,8.1,0,0-.9,1.5-2,3.6-1.2,2.1,1.3,2,1.3,2-.3,1.3-2.3,6.3-2.3,6.3-.5,1.4-2.4,1-2.4,1-6.9-.9-7.4,0-7.6.2s-.4.5-1.1.5-.7.8-.7.8c0,0,0,.5.1.2.2-.3.9-.2,1.4,0,.5.3,0,.6,0,.6-2.5,1.1-2.6,2.1-2.6,2.1-.9.5-.8,1.4-.8,1.4.2-.5,1.1-.4,1.1-.4.6.4,2.6-.6,2.8-.7s.3,0,.3,0c.3.6,0,.9,0,.9-1.1.9-.9,1.9-.9,1.9-.4.4-.2.9-.2.9,0-.5,1-.6,1-.6.9.2,2.5-1.5,2.5-1.5,3.3-3.3,8.1-2.7,9.6-2.8,1.5,0,2,.6,2.5.8s.6,0,.9.1c.3,0,.7.6.7.6-.2-1-.7-1.5-.7-1.5.1-2.1-3.3-2.9-3.3-2.9v.2Z"/>
    </g>
  </g>
  <rect x="0" y="150" width="508.4" height="147.3" fill="#d3d3d3"/>
  <text x="254.2" y="220" font-family="Arial" font-size="60" fill="none" text-anchor="middle">King's College</text>
  <text x="254.2" y="280" font-family="Arial" font-size="30" fill="none" text-anchor="middle">Schools International</text>
</svg>
